# xmcd
#
# Track frame offsets:
#	150
#	14730
#	30012
#	49680
#	65432
#	88607
#	106240
#	125622
#	147755
#	162380
#	182742
#	203505
#
# Disc length: 2956
#
# Revision: 2
# Processed by: cddbd v1.5.1PL0 Copyright (c) Steve Scherf et al.
# Submitted via: EasyCDDAExtractor 6.2.0.3
# Normalized: r1:DSETVAR1
#
DISCID=990b8a0c
DTITLE=Various Artist - The Heart. The Soul. The Spirit.
DYEAR=1900
DGENRE=Blues
TTITLE0=Baxter - Cajun Angel
TTITLE1=Beausoleil - The Flame Will Never Die
TTITLE2=Champion Jack Dupree - Hometown New Orleans
TTITLE3=Dalton Reed - Party On The Farm
TTITLE4=Nathan and The Zydeco Cha Chas - Follow Me Chicken
TTITLE5=Buckwheat Zydeco - Zydeco Boogaloo
TTITLE6=John Lee Hooker - Boom Boom
TTITLE7=Beau Jocque - Give Him Cornbread
TTITLE8=James Booker - Classified
TTITLE9=Aaron Neville - Mojo Hannah
TTITLE10=Johnny Adams - Fortune Teller
TTITLE11=Bo Dollis and The W1ld Magnolias - I'm Back
EXTD=ID3G: 0
EXTT0=
EXTT1=
EXTT2=
EXTT3=
EXTT4=
EXTT5=
EXTT6=
EXTT7=
EXTT8=
EXTT9=
EXTT10=
EXTT11=
PLAYORDER=
